# xmcd
#
# Track frame offsets:
#	150
#	14760
#	33544
#	49293
#	69232
#	92259
#	106375
#	124508
#	140466
#	153809
#	173067
#	195409
#	216972
#	233683
#	249291
#	270716
#
# Disc length: 3837 seconds
#
# Revision: 2
# Processed by: cddbd v1.5.2PL0 Copyright (c) Steve Scherf et al.
# Submitted via: dBpowerAMP V4.0
#
DISCID=d00efb10
DTITLE=John Denver - Collection
DYEAR=2003
DGENRE=Country
TTITLE0=Take Me Home, Contry Roads
TTITLE1=Rocky Montain High
TTITLE2=Higher Ground
TTITLE3=Ponies
TTITLE4=Sunshine On My Shoulders
TTITLE5=Annie´s Song
TTITLE6=Windsond
TTITLE7=Two Different Directions
TTITLE8=Whispering Jesse
TTITLE9=To The Wild Contry
TTITLE10=I Watch You Sleeping
TTITLE11=The Gift You Are
TTITLE12=Children Of The Universe
TTITLE13=Rocky Montain Suite
TTITLE14=Eagles and Horses
TTITLE15=Calypso
EXTD=John Denver\nCollection
EXTT0=
EXTT1=
EXTT2=
EXTT3=
EXTT4=
EXTT5=
EXTT6=
EXTT7=
EXTT8=
EXTT9=
EXTT10=
EXTT11=
EXTT12=
EXTT13=
EXTT14=
EXTT15=
PLAYORDER=
